# xmcd CD database file
#
# Track frame offsets:
#	150
#	21596
#	39437
#	60493
#
# Disc length: 1090 seconds
#
# Revision: 3
# Processed by: cddbd v1.5.2PL0 Copyright (c) Steve Scherf et al.
# Submitted via: CDex 2.04
#
DISCID=2d044004
DTITLE=Morning Musume - Ren'ai Hunter (Limited E)
DYEAR=2012
DGENRE=J-Pop
TTITLE0=Ren'ai Hunter
TTITLE1=Watashi ga Ite Kimi ga Iru
TTITLE2=Egao ni Namida ~THANK YOU! DEAR MY FRIENDS~
TTITLE3=Ren'ai Hunter (Instrumental)
EXTD=YEAR: 2012
EXTT0=
EXTT1=
EXTT2=
EXTT3=
PLAYORDER=
